<?xml version="1.0" encoding="UTF-8"?>
<svg width="126px" height="32px" viewBox="0 0 126 32" version="1.1" xmlns="http://www.w3.org/2000/svg" xmlns:xlink="http://www.w3.org/1999/xlink">
    <!-- Generator: Sketch 53.2 (72643) - https://sketchapp.com -->
    <title>分组 copy 7</title>
    <desc>Created with Sketch.</desc>
    <defs>
        <polygon id="path-1" points="0 31.8845217 125.898957 31.8845217 125.898957 0 0 0"></polygon>
    </defs>
    <g id="PC端" stroke="none" stroke-width="1" fill="none" fill-rule="evenodd">
        <g id="1.0顶部" transform="translate(-24.000000, -16.000000)">
            <g id="分组-13">
                <g id="分组-copy-9" transform="translate(24.000000, 16.000000)">
                    <g id="分组-copy-7">
                        <path d="M31.7751202,26.2507826 C31.7751202,29.3624348 29.2613596,31.8845217 26.1607543,31.8845217 L5.6142619,31.8845217 C2.51348336,31.8845217 6.93259972e-05,29.3624348 6.93259972e-05,26.2507826 L6.93259972e-05,5.63356522 C6.93259972e-05,2.52226087 2.51348336,0 5.6142619,0 L26.1607543,0 C29.2613596,0 31.7751202,2.52226087 31.7751202,5.63356522 L31.7751202,26.2507826 Z" id="Fill-1" fill="#E95506"></path>
                        <path d="M9.64309023,7.13410435 C11.1509307,7.42245217 15.2259128,6.94401739 20.1040366,6.38262609 C23.6550875,5.97375652 24.7429857,6.21149565 24.7429857,6.21149565 C24.7429857,6.21149565 24.273822,4.02227826 22.9616542,3.22784348 C22.0098083,2.65166957 20.2347161,2.85653913 19.7111315,3.00088696 C17.9852608,3.47549565 14.3383667,4.06158261 11.3954781,4.19236522 C8.97617414,4.29966957 7.03209986,3.41549565 7.03209986,3.41549565 C7.17231169,4.32245217 7.36885089,6.69897391 9.64309023,7.13410435" id="Fill-3" fill="#FEFEFE"></path>
                        <path d="M25.6014495,20.4829391 C25.6555238,20.0652 25.6862006,19.6399826 25.6862006,19.2074609 C25.6862006,13.7858957 21.2904124,9.37493913 15.8873175,9.37493913 C10.4840492,9.37493913 6.0886077,13.7858957 6.0886077,19.2074609 C6.0886077,24.6292 10.4840492,29.0401565 15.8873175,29.0401565 C19.6796228,29.0401565 22.9736476,26.8657217 24.6021153,23.695113 L21.6394688,23.695113 C20.3042501,25.4142435 18.2225637,26.5234609 15.8873175,26.5234609 C11.8674495,26.5234609 8.59682228,23.2415478 8.59682228,19.2074609 C8.59682228,15.1738957 11.8674495,11.8919826 15.8873175,11.8919826 C19.4738979,11.8919826 22.4613285,14.5043304 23.064638,17.9325043 L15.7192019,17.9325043 L15.7179887,17.9321565 C15.7176421,17.9321565 15.7172955,17.9325043 15.7172955,17.9325043 L15.7068966,17.9325043 L15.7068966,17.9330261 C15.0101703,17.9387652 14.4472432,18.507113 14.4472432,19.2074609 C14.4472432,19.9083304 15.0101703,20.4761565 15.7068966,20.4818957 L15.7068966,20.4829391 L15.7169488,20.4829391 L15.7179887,20.4829391 L15.7192019,20.4829391 L23.064638,20.4829391 L25.6014495,20.4829391 Z" id="Fill-5" fill="#FEFEFE"></path>
                        <mask id="mask-2" fill="white">
                            <use xlink:href="#path-1"></use>
                        </mask>
                        <g id="Clip-8"></g>
                        <path d="M44.5790426,16.9264348 L54.7618184,16.9264348 L54.7618184,13.3278261 L44.5790426,13.3278261 L44.5790426,16.9264348 Z M53.7349271,22.9241739 L44.5790426,22.9241739 L44.5790426,19.154087 L54.7618184,19.154087 L54.7618184,21.7246957 C54.8179725,22.5813913 54.4758487,22.9817391 53.7349271,22.9241739 L53.7349271,22.9241739 Z M39.9582916,9.12921739 L47.6597166,9.12921739 C47.6021761,9.35808696 47.5446355,9.67286957 47.4884814,10.0718261 C47.3734003,10.5295652 47.287956,10.9003478 47.2318019,11.1855652 L41.5841596,11.1855652 L41.5841596,24.9806957 L54.5907565,24.9806957 C56.7580605,25.0368696 57.8130289,24.0086957 57.7568748,21.896 L57.7568748,11.1855652 L50.8256616,11.1855652 C50.881989,10.8427826 50.9674333,10.3582609 51.0825144,9.72904348 C51.1384952,9.44382609 51.1960358,9.24434783 51.2535763,9.12921739 L59.3825695,9.12921739 L59.3825695,6.9013913 L39.9582916,6.9013913 L39.9582916,9.12921739 Z" id="Fill-7" fill="#FEFEFE" mask="url(#mask-2)"></path>
                        <path d="M71.3711662,6.21817391 C66.0280382,6.21817391 61.6807783,10.5804348 61.6807783,15.9421739 C61.6807783,21.303913 66.0280382,25.6661739 71.3711662,25.6661739 C75.1220492,25.6661739 78.3789846,23.5152174 79.9897741,20.380087 L77.0591909,20.380087 C75.7393972,22.080087 73.6809351,23.1767826 71.3711662,23.1767826 C67.3963601,23.1767826 64.1616091,19.9313913 64.1616091,15.9421739 C64.1616091,11.9527826 67.3963601,8.7073913 71.3711662,8.7073913 C74.9184041,8.7073913 77.8730781,11.2912174 78.4696283,14.6811304 L71.2044371,14.6811304 L71.2035706,14.6811304 L71.192825,14.6811304 L71.192825,14.682 C70.5035513,14.6877391 69.9472102,15.2498261 69.9472102,15.9421739 C69.9472102,16.6345217 70.5035513,17.195913 71.192825,17.2021739 L71.192825,17.2030435 L71.2035706,17.2030435 L71.2044371,17.2030435 L78.4696283,17.2030435 L80.9776696,17.2030435 C81.0312239,16.7903478 81.062074,16.3698261 81.062074,15.9421739 C81.062074,10.5804348 76.7144674,6.21817391 71.3711662,6.21817391" id="Fill-9" fill="#FEFEFE" mask="url(#mask-2)"></path>
                        <path d="M98.4959851,12.2176522 C98.6628875,14.1713913 98.9679219,15.8166087 99.4135147,17.155913 C99.9140484,15.5941739 100.218909,13.4731304 100.331044,10.7946957 L98.8296165,10.7946957 C98.4959851,11.3531304 98.0789893,11.827913 97.5784556,12.2176522 L98.4959851,12.2176522 Z M95.2428627,6.69347826 C95.186882,7.75417391 94.9641722,8.73104348 94.5757733,9.62304348 L92.156816,9.62304348 C92.3783125,8.95330435 92.5738118,8.03278261 92.7407142,6.86095652 C92.6845601,6.97330435 92.6845601,6.91713043 92.7407142,6.69347826 L95.2428627,6.69347826 Z M90.0716633,21.6755652 C90.905655,21.1183478 91.3775917,20.3364348 91.4893799,19.331913 L88.820329,19.331913 C88.9872314,20.3927826 89.4042272,21.1733043 90.0716633,21.6755652 L90.0716633,21.6755652 Z M85.1502107,6.69347826 L87.6527059,6.69347826 C87.7074735,7.75417391 87.9301832,8.73104348 88.3197953,9.62304348 L85.9010113,9.62304348 C85.4554184,8.61869565 85.2049783,7.64286957 85.1502107,6.69347826 L85.1502107,6.69347826 Z M104.168065,8.45121739 L104.168065,10.7946957 L103.250535,10.7946957 C103.194208,15.1470435 102.471138,18.3562609 101.081672,20.420087 C101.69278,21.2571304 102.637867,22.1778261 103.917625,23.1821739 L103.917625,25.6093043 C101.859683,24.3813043 100.358255,23.3221739 99.4135147,22.4287826 C98.2458916,23.4331304 96.7992314,24.4649565 95.076307,25.5256522 L95.076307,23.1821739 C96.1877761,22.1778261 97.0779219,21.2296522 97.7453579,20.3364348 C96.6881365,18.6073913 95.9650663,16.3188696 95.5764941,13.4731304 C95.4097651,13.4731304 95.2428627,13.5294783 95.076307,13.6406087 L95.076307,12.3851304 L93.9083373,12.3851304 C94.1859879,13.1110435 94.6589645,13.7529565 95.3264006,14.31 L95.3264006,16.1513913 C93.4353607,15.482 92.2115835,14.3663478 91.6562823,12.8035652 L91.6562823,15.5656522 L88.7369645,15.5656522 L88.7369645,12.8035652 C88.1244693,14.31 86.9019054,15.4268696 85.0670195,16.1513913 L85.0670195,14.31 C85.7341089,13.7529565 86.2060457,13.1110435 86.4847362,12.3851304 L85.0670195,12.3851304 L85.0670195,10.0414783 L88.7369645,10.0414783 L88.7369645,6.27504348 L91.6562823,6.27504348 L91.6562823,10.0414783 L95.1594982,10.0414783 L95.1594982,11.3807826 C96.1603923,10.4324348 96.7444638,8.73104348 96.9110195,6.27504348 L100.080951,6.27504348 C99.968816,7.05695652 99.8305106,7.78165217 99.6636083,8.45121739 L104.168065,8.45121739 Z M84.8165794,19.331913 L84.8165794,16.9884348 L85.9010113,16.9884348 L85.9010113,15.9004348 L88.7369645,15.9004348 L88.7369645,16.9884348 L91.6562823,16.9884348 L91.6562823,15.9004348 L94.4922355,15.9004348 L94.4922355,16.9884348 L95.4933029,16.9884348 L95.4933029,19.331913 L94.408871,19.331913 C94.2967362,20.8385217 93.7414349,22.0390435 92.7407142,22.9310435 C92.8514624,22.9310435 92.9908077,22.9873913 93.15771,23.0983478 C93.8249728,23.2658261 94.3527169,23.3781739 94.7425023,23.4331304 L94.7425023,25.5256522 C92.8514624,25.1908696 91.3226509,24.7722609 90.1548545,24.2701739 C88.7083675,24.7722609 86.8733084,25.1908696 84.6498503,25.5256522 L84.6498503,23.4331304 C85.8176468,23.3221739 86.7623868,23.1272174 87.4858036,22.8473913 C86.6516385,21.8992174 86.1511048,20.7275652 85.9845491,19.331913 L84.8165794,19.331913 Z" id="Fill-10" fill="#FEFEFE" mask="url(#mask-2)"></path>
                        <path d="M118.642155,20.2945913 L118.642155,23.0566783 L121.478108,23.0566783 C122.08939,23.1128522 122.36704,22.8055478 122.312273,22.1359826 L122.312273,20.2945913 L118.642155,20.2945913 Z M115.806201,14.3519826 L118.892421,14.3519826 L118.892421,12.8453739 L115.806201,12.8453739 L115.806201,14.3519826 Z M115.806201,9.24641739 L115.806201,10.6692 L121.978642,10.6692 C122.479175,10.6692 122.729269,10.4180696 122.729269,9.9158087 L122.729269,9.24641739 L115.806201,9.24641739 Z M115.806201,25.0653739 L115.806201,18.2020696 L118.892248,18.2020696 L118.892248,16.5281565 L115.806201,16.5281565 L115.806201,17.1140696 C115.973104,20.9641565 114.526443,23.7812 111.46882,25.5674609 L111.46882,23.3076348 C112.357753,21.9135478 112.774749,20.0434609 112.719981,17.6998087 L112.719981,6.9865913 L125.565222,6.9865913 L125.565222,10.167113 C125.67597,12.0646783 124.841805,12.9577217 123.0629,12.8453739 L121.978642,12.8453739 L121.978642,14.3519826 L125.898853,14.3519826 L125.898853,16.5281565 L121.978642,16.5281565 L121.978642,18.2020696 L125.231764,18.2020696 L125.231764,22.3869391 C125.342339,24.2834609 124.424809,25.1763304 122.479175,25.0653739 L115.806201,25.0653739 Z M108.048969,6.31685217 L111.218554,6.31685217 L111.218554,8.74415652 L112.302985,8.74415652 L112.302985,11.0039826 L111.218554,11.0039826 L111.218554,14.7704174 C111.552358,14.7154609 111.9132,14.6029391 112.302985,14.4358087 L112.302985,16.6956348 C112.247005,16.7518087 112.136083,16.8078087 111.969354,16.8629391 C111.802452,16.919287 111.552358,17.0029391 111.218554,17.1140696 L111.218554,22.6382435 C111.218554,24.423113 110.328408,25.3165043 108.549503,25.3165043 L106.881346,25.3165043 L106.881346,23.2239826 L107.298342,23.2239826 C107.853643,23.2803304 108.103736,22.9728522 108.048969,22.303287 L108.048969,18.0347652 C107.603376,18.0909391 107.131439,18.1747652 106.631079,18.2857217 L106.631079,15.5236348 C107.131439,15.5236348 107.603376,15.4686783 108.048969,15.3561565 L108.048969,11.0039826 L106.797808,11.0039826 L106.797808,8.74415652 L108.048969,8.74415652 L108.048969,6.31685217 Z" id="Fill-11" fill="#FEFEFE" mask="url(#mask-2)"></path>
                    </g>
                </g>
            </g>
        </g>
    </g>
</svg>